<svg xmlns="http://www.w3.org/2000/svg" width="20" height="20" viewBox="0 0 20 20">
  <defs>
    <style>
      .cls-1 {
        fill: #e6e4e4;
        fill-rule: evenodd;
      }
    </style>
  </defs>
  <path id="cart_icon" data-name="cart icon" class="cls-1" d="M974,3141a2,2,0,1,0,2,2,2,2,0,0,0-2-2h0Zm-6-16v2h2l3.6,7.59-1.351,2.45a1.933,1.933,0,0,0-.249.96,2.006,2.006,0,0,0,2,2h12v-2H974.42a0.247,0.247,0,0,1-.25-0.25l0.029-.12,0.9-1.63h7.45a1.987,1.987,0,0,0,1.75-1.03l3.579-6.49A0.966,0.966,0,0,0,988,3128a1,1,0,0,0-1-1H972.209l-0.939-2H968Zm16,16a2,2,0,1,0,2,2,2,2,0,0,0-2-2h0Z" transform="translate(-968 -3125)"/>
</svg>
