<svg xmlns="http://www.w3.org/2000/svg" width="22" height="12" viewBox="0 0 22 12">
  <defs>
    <style>
      .cls-1 {
        fill: #b5b5b5;
        fill-rule: evenodd;
      }
    </style>
  </defs>
  <path id="game_icon" data-name="game icon" class="cls-1" d="M568.5,3179a1.5,1.5,0,1,1,1.5-1.5A1.5,1.5,0,0,1,568.5,3179Zm-4,3a1.5,1.5,0,1,1,1.5-1.5A1.5,1.5,0,0,1,564.5,3182Zm-4.5-2h-3v3h-2v-3h-3v-2h3v-3h2v3h3v2Zm10-7H552a2.006,2.006,0,0,0-2,2v8a2.006,2.006,0,0,0,2,2h18a2.005,2.005,0,0,0,2-2v-8A2.005,2.005,0,0,0,570,3173Z" transform="translate(-550 -3173)"/>
</svg>
