<svg xmlns="http://www.w3.org/2000/svg" width="18" height="18" viewBox="0 0 18 18">
  <defs>
    <style>
      .cls-1 {
        fill: #ccc;
        fill-rule: evenodd;
      }
    </style>
  </defs>
  <path id="memory_icon" data-name="memory icon" class="cls-1" d="M565,2943H555v-10h10v10Zm4-6v-2h-2v-2a2.005,2.005,0,0,0-2-2h-2v-2h-2v2h-2v-2h-2v2h-2a2.007,2.007,0,0,0-2,2v2h-2v2h2v2h-2v2h2v2a2.007,2.007,0,0,0,2,2h2v2h2v-2h2v2h2v-2h2a2.005,2.005,0,0,0,2-2v-2h2v-2h-2v-2h2Zm-8,2h-2v-2h2v2Zm2-4h-6v6h6v-6Z" transform="translate(-551 -2929)"/>
</svg>
