<svg xmlns="http://www.w3.org/2000/svg" width="14" height="20" viewBox="0 0 14 20">
  <defs>
    <style>
      .cls-1 {
        fill: #ccc;
        fill-rule: evenodd;
      }
    </style>
  </defs>
  <path id="speaker_icon" data-name="speaker icon" class="cls-1" d="M560,2998a3,3,0,1,0,3,3A3,3,0,0,0,560,2998Zm0,8a5,5,0,1,1,5-5A5,5,0,0,1,560,3006Zm0-16a2,2,0,1,1-2,2A2.006,2.006,0,0,1,560,2990Zm5-2H555a2.007,2.007,0,0,0-2,2v16a2,2,0,0,0,2,1.99l10,0.01a2.005,2.005,0,0,0,2-2v-16A2.005,2.005,0,0,0,565,2988Z" transform="translate(-553 -2988)"/>
</svg>
