<svg xmlns="http://www.w3.org/2000/svg" width="14" height="11.75" viewBox="0 0 14 11.75">
  <defs>
    <style>
      .cls-1 {
        fill: #666;
        fill-rule: evenodd;
      }
    </style>
  </defs>
  <path id="twitter_icon" data-name="twitter icon" class="cls-1" d="M1462,3711.53a5.57,5.57,0,0,1-1.65.47,3.017,3.017,0,0,0,1.27-1.64,5.779,5.779,0,0,1-1.83.72,2.821,2.821,0,0,0-2.1-.94,2.872,2.872,0,0,0-2.04.88,2.957,2.957,0,0,0-.83,2.09,3.078,3.078,0,0,0,.07.68,8.1,8.1,0,0,1-5.92-3.1,3.037,3.037,0,0,0,.89,3.96,2.864,2.864,0,0,1-1.3-.37v0.04a2.95,2.95,0,0,0,2.31,2.91,3.007,3.007,0,0,1-1.3.05,2.9,2.9,0,0,0,2.68,2.06,5.659,5.659,0,0,1-3.56,1.27,0.914,0.914,0,0,1-.69-0.04,7.951,7.951,0,0,0,4.4,1.33,8.089,8.089,0,0,0,5.82-2.48,8.414,8.414,0,0,0,2.35-5.96c0-.13,0-0.26-0.01-0.39A5.711,5.711,0,0,0,1462,3711.53Z" transform="translate(-1448 -3710.16)"/>
</svg>
