<svg xmlns="http://www.w3.org/2000/svg" width="16" height="16" viewBox="0 0 16 16">
  <defs>
    <style>
      .cls-1 {
        fill: gray;
        fill-rule: evenodd;
      }
    </style>
  </defs>
  <path id="user_icon" data-name="user icon" class="cls-1" d="M1533,1796c-2.67,0-8,1.34-8,4v3h16v-3C1541,1797.34,1535.67,1796,1533,1796Zm0-9a4,4,0,1,0,4,4A4,4,0,0,0,1533,1787Zm0,10.9c2.97,0,6.1,1.46,6.1,2.1v1.1h-12.2V1800C1526.9,1799.36,1530.03,1797.9,1533,1797.9Zm0-9a2.1,2.1,0,1,1-2.1,2.1A2.1,2.1,0,0,1,1533,1788.9Z" transform="translate(-1525 -1787)"/>
</svg>
